<?xml version="1.0" encoding="utf-8"?>
<!-- Generator: Adobe Illustrator 17.1.0, SVG Export Plug-In . SVG Version: 6.00 Build 0)  -->
<!DOCTYPE svg PUBLIC "-//W3C//DTD SVG 1.1//EN" "http://www.w3.org/Graphics/SVG/1.1/DTD/svg11.dtd">
<svg version="1.1" id="Layer_1" xmlns="http://www.w3.org/2000/svg" xmlns:xlink="http://www.w3.org/1999/xlink" x="0px" y="0px"
	 viewBox="0 0 70.3 53" enable-background="new 0 0 70.3 53" xml:space="preserve">
<g>
	<g>
		<g>
			<polygon fill="#1E1E1E" stroke="#FFFFFF" stroke-width="0.9989" stroke-miterlimit="10" points="69.8,35.2 69.8,52.5 0.5,52.5 
				0.5,0.5 35.2,0.5 			"/>
			<polygon fill="#96C83C" stroke="#96C83C" stroke-width="0.9989" stroke-miterlimit="10" points="69.9,29.3 69.9,0.6 41.1,0.6 			
				"/>
		</g>
		<path id="d_15_" fill="#FFFFFF" d="M56.2,26.4c-0.2-0.5-0.4-0.9-0.7-1.2c-0.3-0.3-0.6-0.5-0.9-0.6c-0.4-0.2-1-0.2-1.5,0
			c-0.3,0.2-0.5,0.2-0.5,0.3v8.6c-0.5-0.7-1.2-1.3-2.1-1.8c-0.9-0.5-2-0.7-3.2-0.7c-1.1,0-2.2,0.2-3.1,0.6c-0.9,0.4-1.8,1-2.4,1.7
			c-0.7,0.8-1.2,1.7-1.6,2.7c-0.4,1.1-0.6,2.3-0.6,3.6c0,1.3,0.2,2.5,0.6,3.5c0.4,1.1,0.9,2,1.6,2.7c0.7,0.8,1.5,1.3,2.4,1.8
			c0.9,0.4,1.9,0.6,3,0.6c1.2,0,2.3-0.3,3.2-0.8c0.9-0.6,1.6-1.3,2.1-2.3v0.5c0,0.9,0.2,1.5,0.6,1.8c0.4,0.3,0.9,0.5,1.6,0.5h-0.3
			c0.6,0,1.1-0.2,1.5-0.5c0.4-0.3,0.6-0.9,0.6-1.8V28.3C56.4,27.5,56.4,26.9,56.2,26.4 M47.5,44.6c-2.4,0-4.3-2.1-4.3-4.8
			c0-2.6,1.9-4.8,4.3-4.8c2.4,0,4.3,2.1,4.3,4.8C51.8,42.5,49.9,44.6,47.5,44.6"/>
		<path id="e_15_" fill="#FFFFFF" d="M37.2,36c-0.4-1-0.9-1.9-1.7-2.6C34.9,32.6,34,32,33,31.6C32,31.2,31,31,29.8,31
			c-1.2,0-2.3,0.2-3.4,0.7c-1,0.4-1.9,1.1-2.7,1.8c-0.8,0.8-1.3,1.7-1.8,2.8c-0.4,1.1-0.6,2.3-0.6,3.5c0,1.3,0.2,2.5,0.6,3.6
			c0.4,1.1,1,2,1.8,2.7c0.8,0.8,1.7,1.3,2.7,1.7c1.1,0.4,2.3,0.6,3.6,0.6c1.1,0,2.1-0.1,3-0.3c0.9-0.2,1.6-0.5,2.2-0.9
			c0.6-0.4,1-0.8,1.3-1.2c0.3-0.5,0.5-0.9,0.5-1.3c0-0.5-0.1-0.9-0.3-1.2c-0.2-0.3-0.5-0.5-0.8-0.7c-0.3-0.2-0.5-0.3-0.8-0.3
			c-0.2,0-0.4-0.1-0.4,0c-0.4,0.7-0.9,1.2-1.6,1.7c-0.7,0.5-1.7,0.7-2.9,0.7c-1.3,0-2.3-0.3-3.1-1c-0.8-0.7-1.3-1.7-1.5-2.9h11.1
			c0.4,0,0.7-0.1,0.9-0.3c0.1-0.2,0.2-0.6,0.2-1v-0.3C37.8,38.1,37.6,37,37.2,36 M25.6,38.2c0.2-1.1,0.6-2.1,1.4-2.8
			c0.8-0.7,1.7-1.1,2.8-1.1c1.1,0,2,0.3,2.7,1.1c0.7,0.7,1,1.6,1.1,2.8H25.6z"/>
		<path id="z_15_" fill="#FFFFFF" d="M5.8,47.5c-0.3-0.3-0.4-0.7-0.4-1.2V46c0-0.5,0.1-0.9,0.3-1.2c0.2-0.3,0.4-0.6,0.8-1l7.3-8.5
			H7.4c-1.3,0-1.9-0.6-1.9-1.7v-0.2c0-1.1,0.6-1.7,1.9-1.7h10.5c0.6,0,1.1,0.2,1.4,0.5c0.3,0.3,0.4,0.7,0.4,1.1v0.2
			c0,0.5-0.1,0.9-0.2,1.2c-0.2,0.3-0.4,0.6-0.8,1l-7.5,8.7h6.9c1.3,0,1.9,0.6,1.9,1.7v0.2c0,1.2-0.6,1.7-1.9,1.7h-11
			C6.5,48,6.1,47.8,5.8,47.5"/>
		<path id="_x2B__15_" fill="#FFFFFF" d="M66.3,9.2c0-0.4-0.3-0.7-0.7-0.7v0h-3.6V4.9c0-0.4-0.3-0.7-0.7-0.7c-0.4,0-0.7,0.3-0.7,0.7
			v3.6h-3.6v0c-0.4,0-0.7,0.3-0.7,0.7c0,0.4,0.3,0.7,0.7,0.7v0h3.6v3.6h0c0,0.4,0.3,0.7,0.7,0.7c0.4,0,0.7-0.3,0.7-0.7h0V10h3.6v0
			C65.9,10,66.3,9.6,66.3,9.2z"/>
	</g>
</g>
</svg>
